{"glyphs":{"0":{"ha":747,"x_min":0,"x_max":641,"o":"m 427 106 l 427 1068 l 214 1068 l 214 106 l 427 106 m 106 0 l 0 106 l 0 1068 l 106 1175 l 534 1175 l 641 1068 l 641 106 l 534 0 l 106 0 z "},"1":{"ha":427,"x_min":0,"x_max":320,"o":"m 106 0 l 106 1068 l 0 1068 l 0 1175 l 214 1175 l 320 1068 l 320 0 l 106 0 z "},"2":{"ha":747,"x_min":0,"x_max":641,"o":"m 0 0 l 0 534 l 106 641 l 427 641 l 427 1068 l 214 1068 l 214 961 l 0 961 l 0 1068 l 106 1175 l 534 1175 l 641 1068 l 641 641 l 534 534 l 214 534 l 214 106 l 641 106 l 641 0 l 0 0 z "},"3":{"ha":747,"x_min":0,"x_max":641,"o":"m 106 0 l 0 106 l 0 214 l 214 214 l 214 106 l 427 106 l 427 587 l 106 587 l 106 694 l 427 694 l 427 1068 l 214 1068 l 214 961 l 0 961 l 0 1068 l 106 1175 l 534 1175 l 641 1068 l 641 747 l 534 641 l 641 534 l 641 106 l 534 0 l 106 0 z "},"4":{"ha":747,"x_min":0,"x_max":641,"o":"m 427 0 l 427 534 l 106 534 l 0 641 l 0 1175 l 214 1175 l 214 641 l 427 641 l 427 1175 l 641 1175 l 641 0 l 427 0 z "},"5":{"ha":747,"x_min":0,"x_max":641,"o":"m 106 0 l 0 106 l 0 320 l 214 320 l 214 106 l 427 106 l 427 534 l 106 534 l 0 641 l 0 1175 l 641 1175 l 641 1068 l 214 1068 l 214 641 l 534 641 l 641 534 l 641 106 l 534 0 l 106 0 z "},"6":{"ha":747,"x_min":0,"x_max":641,"o":"m 427 106 l 427 534 l 214 534 l 214 106 l 427 106 m 106 0 l 0 106 l 0 1068 l 106 1175 l 534 1175 l 641 1068 l 641 854 l 427 854 l 427 1068 l 214 1068 l 214 641 l 534 641 l 641 534 l 641 106 l 534 0 l 106 0 z "},"7":{"ha":747,"x_min":0,"x_max":641,"o":"m 427 0 l 427 1068 l 214 1068 l 214 961 l 0 961 l 0 1175 l 641 1175 l 641 0 l 427 0 z "},"8":{"ha":747,"x_min":0,"x_max":641,"o":"m 427 106 l 427 587 l 214 587 l 214 106 l 427 106 m 427 694 l 427 1068 l 214 1068 l 214 694 l 427 694 m 106 0 l 0 106 l 0 534 l 106 641 l 0 747 l 0 1068 l 106 1175 l 534 1175 l 641 1068 l 641 747 l 534 641 l 641 534 l 641 106 l 534 0 l 106 0 z "},"9":{"ha":747,"x_min":0,"x_max":641,"o":"m 427 641 l 427 1068 l 214 1068 l 214 641 l 427 641 m 106 0 l 0 106 l 0 320 l 214 320 l 214 106 l 427 106 l 427 534 l 106 534 l 0 641 l 0 1068 l 106 1175 l 534 1175 l 641 1068 l 641 106 l 534 0 l 106 0 z "}," ":{"ha":320,"x_min":0,"x_max":0,"o":""},"!":{"ha":534,"x_min":0,"x_max":427,"o":"m 214 0 l 0 214 l 0 320 l 106 427 l 214 320 l 320 427 l 427 320 l 427 214 l 214 0 m 214 427 l 106 534 l 106 1175 l 320 1175 l 320 534 l 214 427 z "},"\"":{"ha":534,"x_min":0,"x_max":427,"o":"m 320 854 l 214 961 l 267 1015 l 320 961 l 374 1015 l 427 961 l 320 854 m 106 961 l 0 1068 l 53 1122 l 106 1068 l 160 1122 l 214 1068 l 106 961 z "},"#":{"ha":854,"x_min":0,"x_max":747,"o":"m 427 427 l 427 747 l 320 747 l 320 427 l 427 427 m 106 0 l 106 320 l 0 320 l 0 427 l 106 427 l 106 747 l 0 747 l 0 854 l 106 854 l 106 1175 l 320 1175 l 320 854 l 427 854 l 427 1175 l 641 1175 l 641 854 l 747 854 l 747 747 l 641 747 l 641 427 l 747 427 l 747 320 l 641 320 l 641 0 l 427 0 l 427 320 l 320 320 l 320 0 l 106 0 z "},"$":{"ha":747,"x_min":0,"x_max":641,"o":"m 214 0 l 214 106 l 106 106 l 0 214 l 0 427 l 214 427 l 214 214 l 427 214 l 427 534 l 106 534 l 0 641 l 0 961 l 106 1068 l 214 1068 l 214 1175 l 427 1175 l 427 1068 l 534 1068 l 641 961 l 641 747 l 427 747 l 427 961 l 214 961 l 214 641 l 534 641 l 641 534 l 641 214 l 534 106 l 427 106 l 427 0 l 214 0 z "},"%":{"ha":854,"x_min":0,"x_max":747,"o":"m 534 0 l 320 214 l 320 320 l 427 427 l 534 320 l 641 427 l 747 320 l 747 214 l 534 0 m 214 747 l 0 961 l 0 1068 l 106 1175 l 214 1068 l 320 1175 l 427 1068 l 427 961 l 214 747 m 0 0 l 0 534 l 106 641 l 534 641 l 534 1175 l 747 1175 l 747 641 l 641 534 l 214 534 l 214 0 l 0 0 z "},"&":{"ha":2030,"x_min":0,"x_max":1923,"o":"m 0 0 l 0 106 l 1923 106 l 1923 0 l 0 0 m 427 641 l 427 854 l 320 854 l 320 641 l 427 641 m 1709 320 l 1709 854 l 1603 854 l 1603 320 l 1709 320 m 106 214 l 106 854 l 214 961 l 534 961 l 641 854 l 641 214 l 427 214 l 427 534 l 320 534 l 320 214 l 106 214 m 747 214 l 747 961 l 1175 961 l 1282 854 l 1282 214 l 1068 214 l 1068 854 l 961 854 l 961 214 l 747 214 m 1389 214 l 1389 961 l 1816 961 l 1923 854 l 1923 320 l 1816 214 l 1389 214 m 0 1068 l 0 1175 l 1923 1175 l 1923 1068 l 0 1068 z "},"'":{"ha":534,"x_min":0,"x_max":427,"o":"m 214 747 l 0 961 l 0 1068 l 106 1175 l 214 1068 l 320 1175 l 427 1068 l 427 961 l 214 747 z "},"(":{"ha":427,"x_min":0,"x_max":320,"o":"m 106 0 l 0 106 l 0 1068 l 106 1175 l 320 1175 l 320 1068 l 214 1068 l 214 106 l 320 106 l 320 0 l 106 0 z "},")":{"ha":427,"x_min":0,"x_max":320,"o":"m 0 0 l 0 106 l 106 106 l 106 1068 l 0 1068 l 0 1175 l 214 1175 l 320 1068 l 320 106 l 214 0 l 0 0 z "},"*":{"ha":534,"x_min":0,"x_max":427,"o":"m 214 747 l 0 961 l 0 1068 l 106 1175 l 214 1068 l 320 1175 l 427 1068 l 427 961 l 214 747 z "},"+":{"ha":747,"x_min":0,"x_max":641,"o":"m 214 160 l 214 427 l 0 427 l 0 534 l 214 534 l 214 801 l 427 801 l 427 534 l 641 534 l 641 427 l 427 427 l 427 160 l 214 160 z "},",":{"ha":534,"x_min":0,"x_max":427,"o":"m 214 -214 l 0 0 l 0 106 l 106 214 l 214 106 l 320 214 l 427 106 l 427 0 l 214 -214 z "},"-":{"ha":747,"x_min":0,"x_max":641,"o":"m 0 427 l 0 534 l 641 534 l 641 427 l 0 427 z "},".":{"ha":320,"x_min":0,"x_max":214,"o":"m 0 0 l 0 214 l 214 214 l 214 0 l 0 0 z "},"/":{"ha":534,"x_min":0,"x_max":427,"o":"m 0 0 l 0 534 l 106 641 l 214 641 l 214 1175 l 427 1175 l 427 641 l 320 534 l 214 534 l 214 0 l 0 0 z "},":":{"ha":641,"x_min":0,"x_max":534,"o":"m 427 106 l 320 214 l 374 267 l 427 214 l 480 267 l 534 214 l 427 106 m 106 320 l 0 427 l 53 480 l 106 427 l 160 480 l 214 427 l 106 320 m 320 534 l 106 747 l 106 854 l 214 961 l 320 854 l 427 961 l 534 854 l 534 747 l 320 534 z "},";":{"ha":641,"x_min":106,"x_max":534,"o":"m 214 214 l 106 320 l 160 374 l 214 320 l 267 374 l 320 320 l 214 214 m 427 427 l 320 534 l 374 587 l 427 534 l 480 587 l 534 534 l 427 427 m 320 641 l 106 854 l 106 961 l 214 1068 l 320 961 l 427 1068 l 534 961 l 534 854 l 320 641 z "},"<":{"ha":534,"x_min":0,"x_max":427,"o":"m 214 320 l 0 534 l 214 747 l 320 747 l 427 641 l 320 534 l 427 427 l 320 320 l 214 320 z "},"=":{"ha":747,"x_min":0,"x_max":641,"o":"m 0 320 l 0 427 l 641 427 l 641 320 l 0 320 m 0 534 l 0 641 l 641 641 l 641 534 l 0 534 z "},">":{"ha":534,"x_min":0,"x_max":427,"o":"m 106 320 l 0 427 l 106 534 l 0 641 l 106 747 l 214 747 l 427 534 l 214 320 l 106 320 z "},"?":{"ha":747,"x_min":0,"x_max":641,"o":"m 214 0 l 0 214 l 0 320 l 106 427 l 214 320 l 320 427 l 427 320 l 427 214 l 214 0 m 214 427 l 106 534 l 106 747 l 427 747 l 427 1068 l 214 1068 l 214 961 l 0 961 l 0 1068 l 106 1175 l 534 1175 l 641 1068 l 641 747 l 534 641 l 320 641 l 320 534 l 214 427 z "},"@":{"ha":1282,"x_min":0,"x_max":1175,"o":"m 641 320 l 641 854 l 534 854 l 534 320 l 641 320 m 106 0 l 0 106 l 0 1068 l 106 1175 l 1068 1175 l 1175 1068 l 1175 320 l 1068 214 l 427 214 l 320 320 l 320 854 l 427 961 l 854 961 l 854 320 l 961 320 l 961 1068 l 214 1068 l 214 106 l 961 106 l 961 0 l 106 0 z "},"A":{"ha":747,"x_min":0,"x_max":641,"o":"m 427 320 l 427 1068 l 214 1068 l 214 320 l 427 320 m 0 0 l 0 1068 l 106 1175 l 534 1175 l 641 1068 l 641 0 l 427 0 l 427 214 l 214 214 l 214 0 l 0 0 z "},"B":{"ha":747,"x_min":0,"x_max":641,"o":"m 427 106 l 427 587 l 214 587 l 214 106 l 427 106 m 427 694 l 427 1068 l 214 1068 l 214 694 l 427 694 m 0 0 l 0 1175 l 534 1175 l 641 1068 l 641 747 l 534 641 l 641 534 l 641 106 l 534 0 l 0 0 z "},"C":{"ha":747,"x_min":0,"x_max":641,"o":"m 106 0 l 0 106 l 0 1068 l 106 1175 l 534 1175 l 641 1068 l 641 854 l 427 854 l 427 1068 l 214 1068 l 214 106 l 427 106 l 427 320 l 641 320 l 641 106 l 534 0 l 106 0 z "},"D":{"ha":747,"x_min":0,"x_max":641,"o":"m 427 106 l 427 1068 l 214 1068 l 214 106 l 427 106 m 0 0 l 0 1175 l 534 1175 l 641 1068 l 641 106 l 534 0 l 0 0 z "},"E":{"ha":747,"x_min":0,"x_max":641,"o":"m 0 0 l 0 1175 l 641 1175 l 641 1068 l 214 1068 l 214 641 l 534 641 l 534 534 l 214 534 l 214 106 l 641 106 l 641 0 l 0 0 z "},"F":{"ha":747,"x_min":0,"x_max":641,"o":"m 0 0 l 0 1175 l 641 1175 l 641 1068 l 214 1068 l 214 641 l 534 641 l 534 534 l 214 534 l 214 0 l 0 0 z "},"G":{"ha":747,"x_min":0,"x_max":641,"o":"m 106 0 l 0 106 l 0 1068 l 106 1175 l 534 1175 l 641 1068 l 641 854 l 427 854 l 427 1068 l 214 1068 l 214 106 l 427 106 l 427 534 l 320 534 l 320 641 l 641 641 l 641 106 l 534 0 l 106 0 z "},"H":{"ha":747,"x_min":0,"x_max":641,"o":"m 0 0 l 0 1175 l 214 1175 l 214 641 l 427 641 l 427 1175 l 641 1175 l 641 0 l 427 0 l 427 534 l 214 534 l 214 0 l 0 0 z "},"I":{"ha":320,"x_min":0,"x_max":214,"o":"m 0 0 l 0 1175 l 214 1175 l 214 0 l 0 0 z "},"J":{"ha":747,"x_min":0,"x_max":641,"o":"m 106 0 l 0 106 l 0 427 l 214 427 l 214 106 l 427 106 l 427 1068 l 214 1068 l 214 1175 l 641 1175 l 641 106 l 534 0 l 106 0 z "},"K":{"ha":747,"x_min":0,"x_max":641,"o":"m 0 0 l 0 1175 l 214 1175 l 214 694 l 427 694 l 427 1175 l 641 1175 l 641 747 l 534 641 l 641 534 l 641 0 l 427 0 l 427 587 l 214 587 l 214 0 l 0 0 z "},"L":{"ha":747,"x_min":0,"x_max":641,"o":"m 0 0 l 0 1175 l 214 1175 l 214 106 l 641 106 l 641 0 l 0 0 z "},"M":{"ha":1175,"x_min":0,"x_max":1068,"o":"m 0 0 l 0 1175 l 961 1175 l 1068 1068 l 1068 0 l 854 0 l 854 1068 l 641 1068 l 641 0 l 427 0 l 427 1068 l 214 1068 l 214 0 l 0 0 z "},"N":{"ha":747,"x_min":0,"x_max":641,"o":"m 0 0 l 0 1175 l 534 1175 l 641 1068 l 641 0 l 427 0 l 427 1068 l 214 1068 l 214 0 l 0 0 z "},"O":{"ha":747,"x_min":0,"x_max":641,"o":"m 427 106 l 427 1068 l 214 1068 l 214 106 l 427 106 m 106 0 l 0 106 l 0 1068 l 106 1175 l 534 1175 l 641 1068 l 641 106 l 534 0 l 106 0 z "},"P":{"ha":747,"x_min":0,"x_max":641,"o":"m 427 427 l 427 1068 l 214 1068 l 214 427 l 427 427 m 0 0 l 0 1175 l 534 1175 l 641 1068 l 641 427 l 534 320 l 214 320 l 214 0 l 0 0 z "},"Q":{"ha":747,"x_min":0,"x_max":641,"o":"m 427 106 l 427 1068 l 214 1068 l 214 106 l 427 106 m 320 -214 l 214 -106 l 214 0 l 106 0 l 0 106 l 0 1068 l 106 1175 l 534 1175 l 641 1068 l 641 106 l 534 0 l 427 0 l 427 -106 l 534 -106 l 534 -214 l 320 -214 z "},"R":{"ha":747,"x_min":0,"x_max":641,"o":"m 427 694 l 427 1068 l 214 1068 l 214 694 l 427 694 m 0 0 l 0 1175 l 534 1175 l 641 1068 l 641 747 l 534 641 l 641 534 l 641 0 l 427 0 l 427 587 l 214 587 l 214 0 l 0 0 z "},"S":{"ha":747,"x_min":0,"x_max":641,"o":"m 106 0 l 0 106 l 0 320 l 214 320 l 214 106 l 427 106 l 427 534 l 106 534 l 0 641 l 0 1068 l 106 1175 l 534 1175 l 641 1068 l 641 854 l 427 854 l 427 1068 l 214 1068 l 214 641 l 534 641 l 641 534 l 641 106 l 534 0 l 106 0 z "},"T":{"ha":747,"x_min":0,"x_max":641,"o":"m 214 0 l 214 1068 l 0 1068 l 0 1175 l 641 1175 l 641 1068 l 427 1068 l 427 0 l 214 0 z "},"U":{"ha":747,"x_min":0,"x_max":641,"o":"m 106 0 l 0 106 l 0 1175 l 214 1175 l 214 106 l 427 106 l 427 1175 l 641 1175 l 641 106 l 534 0 l 106 0 z "},"V":{"ha":747,"x_min":0,"x_max":641,"o":"m 320 0 l 0 320 l 0 1175 l 214 1175 l 214 267 l 427 267 l 427 1175 l 641 1175 l 641 320 l 320 0 z "},"W":{"ha":1175,"x_min":0,"x_max":1068,"o":"m 320 0 l 0 320 l 0 1175 l 214 1175 l 214 267 l 427 267 l 427 1175 l 641 1175 l 641 267 l 854 267 l 854 1175 l 1068 1175 l 1068 320 l 747 0 l 534 214 l 320 0 z "},"X":{"ha":747,"x_min":0,"x_max":641,"o":"m 0 0 l 0 534 l 106 641 l 0 747 l 0 1175 l 214 1175 l 214 694 l 427 694 l 427 1175 l 641 1175 l 641 747 l 534 641 l 641 534 l 641 0 l 427 0 l 427 587 l 214 587 l 214 0 l 0 0 z "},"Y":{"ha":747,"x_min":0,"x_max":641,"o":"m 214 0 l 214 320 l 106 320 l 0 427 l 0 1175 l 214 1175 l 214 427 l 427 427 l 427 1175 l 641 1175 l 641 427 l 534 320 l 427 320 l 427 0 l 214 0 z "},"Z":{"ha":747,"x_min":0,"x_max":641,"o":"m 0 0 l 0 534 l 106 641 l 427 641 l 427 1068 l 0 1068 l 0 1175 l 641 1175 l 641 641 l 534 534 l 214 534 l 214 106 l 641 106 l 641 0 l 0 0 z "},"[":{"ha":427,"x_min":0,"x_max":320,"o":"m 0 0 l 0 1175 l 320 1175 l 320 1068 l 214 1068 l 214 106 l 320 106 l 320 0 l 0 0 z "},"\\":{"ha":534,"x_min":0,"x_max":427,"o":"m 214 0 l 214 534 l 106 534 l 0 641 l 0 1175 l 214 1175 l 214 641 l 320 641 l 427 534 l 427 0 l 214 0 z "},"]":{"ha":427,"x_min":0,"x_max":320,"o":"m 0 0 l 0 106 l 106 106 l 106 1068 l 0 1068 l 0 1175 l 320 1175 l 320 0 l 0 0 z "},"^":{"ha":534,"x_min":0,"x_max":427,"o":"m 106 747 l 0 854 l 0 961 l 214 1175 l 427 961 l 427 854 l 320 747 l 214 854 l 106 747 z "},"_":{"ha":747,"x_min":0,"x_max":641,"o":"m 0 0 l 0 214 l 641 214 l 641 0 l 0 0 z "},"`":{"ha":427,"x_min":0,"x_max":320,"o":"m 214 854 l 0 1068 l 106 1175 l 320 961 l 214 854 z "},"a":{"ha":747,"x_min":0,"x_max":641,"o":"m 427 106 l 427 534 l 214 534 l 214 106 l 427 106 m 106 0 l 0 106 l 0 534 l 106 641 l 427 641 l 427 854 l 214 854 l 214 747 l 0 747 l 0 854 l 106 961 l 534 961 l 641 854 l 641 106 l 534 0 l 106 0 z "},"b":{"ha":747,"x_min":0,"x_max":641,"o":"m 427 106 l 427 854 l 214 854 l 214 106 l 427 106 m 106 0 l 0 106 l 0 1175 l 214 1175 l 214 961 l 534 961 l 641 854 l 641 106 l 534 0 l 106 0 z "},"c":{"ha":747,"x_min":0,"x_max":641,"o":"m 106 0 l 0 106 l 0 854 l 106 961 l 534 961 l 641 854 l 641 641 l 427 641 l 427 854 l 214 854 l 214 106 l 427 106 l 427 320 l 641 320 l 641 106 l 534 0 l 106 0 z "},"d":{"ha":747,"x_min":0,"x_max":641,"o":"m 427 106 l 427 854 l 214 854 l 214 106 l 427 106 m 106 0 l 0 106 l 0 854 l 106 961 l 427 961 l 427 1175 l 641 1175 l 641 106 l 534 0 l 106 0 z "},"e":{"ha":747,"x_min":0,"x_max":641,"o":"m 427 534 l 427 854 l 214 854 l 214 534 l 427 534 m 106 0 l 0 106 l 0 854 l 106 961 l 534 961 l 641 854 l 641 427 l 214 427 l 214 106 l 427 106 l 427 320 l 641 320 l 641 106 l 534 0 l 106 0 z "},"f":{"ha":747,"x_min":0,"x_max":641,"o":"m 0 -214 l 0 854 l 106 961 l 534 961 l 641 854 l 641 641 l 427 641 l 427 854 l 214 854 l 214 427 l 534 427 l 534 320 l 214 320 l 214 -214 l 0 -214 z "},"g":{"ha":747,"x_min":0,"x_max":641,"o":"m 427 106 l 427 854 l 214 854 l 214 106 l 427 106 m 106 -214 l 106 -106 l 427 -106 l 427 0 l 106 0 l 0 106 l 0 854 l 106 961 l 534 961 l 641 854 l 641 -106 l 534 -214 l 106 -214 z "},"h":{"ha":747,"x_min":0,"x_max":641,"o":"m 0 0 l 0 1175 l 214 1175 l 214 961 l 534 961 l 641 854 l 641 0 l 427 0 l 427 854 l 214 854 l 214 0 l 0 0 z "},"i":{"ha":427,"x_min":-53,"x_max":374,"o":"m 53 0 l 53 747 l 160 641 l 267 747 l 267 0 l 53 0 m 160 747 l -53 961 l -53 1068 l 53 1175 l 160 1068 l 267 1175 l 374 1068 l 374 961 l 160 747 z "},"j":{"ha":427,"x_min":-53,"x_max":374,"o":"m -53 -214 l -53 -106 l 53 -106 l 53 747 l 160 641 l 267 747 l 267 -106 l 160 -214 l -53 -214 m 160 747 l -53 961 l -53 1068 l 53 1175 l 160 1068 l 267 1175 l 374 1068 l 374 961 l 160 747 z "},"k":{"ha":747,"x_min":0,"x_max":641,"o":"m 0 0 l 0 1175 l 214 1175 l 214 480 l 427 480 l 427 961 l 641 961 l 641 534 l 534 427 l 641 320 l 641 0 l 427 0 l 427 374 l 214 374 l 214 0 l 0 0 z "},"l":{"ha":427,"x_min":0,"x_max":320,"o":"m 106 0 l 0 106 l 0 1175 l 214 1175 l 214 106 l 320 106 l 320 0 l 106 0 z "},"m":{"ha":1175,"x_min":0,"x_max":1068,"o":"m 0 0 l 0 961 l 961 961 l 1068 854 l 1068 0 l 854 0 l 854 854 l 641 854 l 641 0 l 427 0 l 427 854 l 214 854 l 214 0 l 0 0 z "},"n":{"ha":747,"x_min":0,"x_max":641,"o":"m 0 0 l 0 961 l 534 961 l 641 854 l 641 0 l 427 0 l 427 854 l 214 854 l 214 0 l 0 0 z "},"o":{"ha":747,"x_min":0,"x_max":641,"o":"m 427 106 l 427 854 l 214 854 l 214 106 l 427 106 m 106 0 l 0 106 l 0 854 l 106 961 l 534 961 l 641 854 l 641 106 l 534 0 l 106 0 z "},"p":{"ha":747,"x_min":0,"x_max":641,"o":"m 427 106 l 427 854 l 214 854 l 214 106 l 427 106 m 0 -214 l 0 854 l 106 961 l 534 961 l 641 854 l 641 106 l 534 0 l 214 0 l 214 -214 l 0 -214 z "},"q":{"ha":747,"x_min":0,"x_max":641,"o":"m 427 106 l 427 854 l 214 854 l 214 106 l 427 106 m 427 -214 l 427 0 l 106 0 l 0 106 l 0 854 l 106 961 l 534 961 l 641 854 l 641 -214 l 427 -214 z "},"r":{"ha":747,"x_min":0,"x_max":641,"o":"m 0 0 l 0 854 l 106 961 l 534 961 l 641 854 l 641 641 l 427 641 l 427 854 l 214 854 l 214 0 l 0 0 z "},"s":{"ha":747,"x_min":0,"x_max":641,"o":"m 106 0 l 0 106 l 0 267 l 214 267 l 214 106 l 427 106 l 427 427 l 106 427 l 0 534 l 0 854 l 106 961 l 534 961 l 641 854 l 641 694 l 427 694 l 427 854 l 214 854 l 214 534 l 534 534 l 641 427 l 641 106 l 534 0 l 106 0 z "},"t":{"ha":747,"x_min":0,"x_max":641,"o":"m 214 0 l 106 106 l 106 747 l 0 747 l 0 854 l 106 854 l 106 1068 l 320 1068 l 320 854 l 641 854 l 641 747 l 320 747 l 320 106 l 427 106 l 427 320 l 641 320 l 641 106 l 534 0 l 214 0 z "},"u":{"ha":747,"x_min":0,"x_max":641,"o":"m 106 0 l 0 106 l 0 961 l 214 961 l 214 106 l 427 106 l 427 961 l 641 961 l 641 106 l 534 0 l 106 0 z "},"v":{"ha":747,"x_min":0,"x_max":641,"o":"m 320 0 l 0 320 l 0 961 l 214 961 l 214 267 l 427 267 l 427 961 l 641 961 l 641 320 l 320 0 z "},"w":{"ha":1175,"x_min":0,"x_max":1068,"o":"m 320 0 l 0 320 l 0 961 l 214 961 l 214 267 l 427 267 l 427 961 l 641 961 l 641 267 l 854 267 l 854 961 l 1068 961 l 1068 320 l 747 0 l 534 214 l 320 0 z "},"x":{"ha":747,"x_min":0,"x_max":641,"o":"m 0 0 l 0 427 l 106 534 l 0 641 l 0 961 l 214 961 l 214 587 l 427 587 l 427 961 l 641 961 l 641 641 l 534 534 l 641 427 l 641 0 l 427 0 l 427 480 l 214 480 l 214 0 l 0 0 z "},"y":{"ha":747,"x_min":0,"x_max":641,"o":"m 106 -214 l 106 -106 l 427 -106 l 427 0 l 106 0 l 0 106 l 0 961 l 214 961 l 214 106 l 427 106 l 427 961 l 641 961 l 641 -106 l 534 -214 l 106 -214 z "},"z":{"ha":747,"x_min":0,"x_max":641,"o":"m 0 0 l 0 427 l 106 534 l 427 534 l 427 854 l 0 854 l 0 961 l 641 961 l 641 534 l 534 427 l 214 427 l 214 106 l 641 106 l 641 0 l 0 0 z "},"{":{"ha":534,"x_min":0,"x_max":427,"o":"m 214 0 l 106 106 l 106 587 l 0 587 l 0 694 l 106 694 l 106 1068 l 214 1175 l 427 1175 l 427 1068 l 320 1068 l 320 747 l 214 641 l 320 534 l 320 106 l 427 106 l 427 0 l 214 0 z "},"|":{"ha":320,"x_min":0,"x_max":214,"o":"m 0 -106 l 0 1282 l 214 1282 l 214 -106 l 0 -106 z "},"}":{"ha":534,"x_min":0,"x_max":427,"o":"m 0 0 l 0 106 l 106 106 l 106 427 l 214 534 l 106 641 l 106 1068 l 0 1068 l 0 1175 l 214 1175 l 320 1068 l 320 587 l 427 587 l 427 480 l 320 480 l 320 106 l 214 0 l 0 0 z "},"~":{"ha":747,"x_min":0,"x_max":641,"o":"m 320 214 l 0 534 l 0 641 l 160 801 l 374 587 l 320 534 l 374 480 l 320 427 l 374 374 l 320 320 l 374 267 l 320 214 m 480 374 l 427 427 l 480 480 l 427 534 l 480 587 l 374 694 l 480 801 l 641 641 l 641 534 l 480 374 z "},"¡":{"ha":534,"x_min":0,"x_max":427,"o":"m 106 -214 l 106 427 l 214 534 l 320 427 l 320 -214 l 106 -214 m 106 534 l 0 641 l 0 747 l 214 961 l 427 747 l 427 641 l 320 534 l 214 641 l 106 534 z "},"¢":{"ha":747,"x_min":0,"x_max":641,"o":"m 214 0 l 214 106 l 106 106 l 0 214 l 0 961 l 106 1068 l 214 1068 l 214 1175 l 427 1175 l 427 1068 l 534 1068 l 641 961 l 641 747 l 427 747 l 427 961 l 214 961 l 214 214 l 427 214 l 427 427 l 641 427 l 641 214 l 534 106 l 427 106 l 427 0 l 214 0 z "},"£":{"ha":854,"x_min":0,"x_max":747,"o":"m 106 0 l 106 534 l 0 534 l 0 641 l 106 641 l 106 1068 l 214 1175 l 641 1175 l 747 1068 l 747 854 l 534 854 l 534 1068 l 320 1068 l 320 641 l 641 641 l 641 534 l 320 534 l 320 106 l 534 106 l 534 214 l 747 214 l 747 0 l 106 0 z "},"¤":{"ha":747,"x_min":0,"x_max":641,"o":"m 320 214 l 0 534 l 0 641 l 160 801 l 320 641 l 480 801 l 641 641 l 641 534 l 320 214 z "},"¥":{"ha":747,"x_min":0,"x_max":641,"o":"m 214 0 l 214 214 l 0 214 l 0 320 l 214 320 l 214 427 l 0 427 l 0 534 l 214 534 l 214 747 l 106 747 l 0 854 l 0 1175 l 214 1175 l 214 854 l 427 854 l 427 1175 l 641 1175 l 641 854 l 534 747 l 427 747 l 427 534 l 641 534 l 641 427 l 427 427 l 427 320 l 641 320 l 641 214 l 427 214 l 427 0 l 214 0 z "},"©":{"ha":1282,"x_min":0,"x_max":1175,"o":"m 427 214 l 320 320 l 320 854 l 427 961 l 747 961 l 854 854 l 854 747 l 641 747 l 641 854 l 534 854 l 534 320 l 641 320 l 641 427 l 854 427 l 854 320 l 747 214 l 427 214 m 961 106 l 961 1068 l 214 1068 l 214 106 l 961 106 m 106 0 l 0 106 l 0 1068 l 106 1175 l 1068 1175 l 1175 1068 l 1175 106 l 1068 0 l 106 0 z "},"®":{"ha":1282,"x_min":0,"x_max":1175,"o":"m 641 587 l 641 854 l 534 854 l 534 587 l 641 587 m 320 214 l 320 854 l 427 961 l 747 961 l 854 854 l 854 641 l 747 534 l 854 427 l 854 214 l 641 214 l 641 480 l 534 480 l 534 214 l 320 214 m 961 106 l 961 1068 l 214 1068 l 214 106 l 961 106 m 106 0 l 0 106 l 0 1068 l 106 1175 l 1068 1175 l 1175 1068 l 1175 106 l 1068 0 l 106 0 z "},"¿":{"ha":747,"x_min":0,"x_max":641,"o":"m 106 -214 l 0 -106 l 0 214 l 106 320 l 320 320 l 320 427 l 427 534 l 534 427 l 534 214 l 214 214 l 214 -106 l 427 -106 l 427 0 l 641 0 l 641 -106 l 534 -214 l 106 -214 m 320 534 l 214 641 l 214 747 l 427 961 l 641 747 l 641 641 l 534 534 l 427 641 l 320 534 z "},"À":{"ha":747,"x_min":0,"x_max":641,"o":"m 427 320 l 427 1068 l 214 1068 l 214 320 l 427 320 m 0 0 l 0 1068 l 106 1175 l 534 1175 l 641 1068 l 641 0 l 427 0 l 427 214 l 214 214 l 214 0 l 0 0 m 214 1228 l 0 1442 l 214 1442 l 427 1228 l 214 1228 z "},"Á":{"ha":747,"x_min":0,"x_max":641,"o":"m 427 320 l 427 1068 l 214 1068 l 214 320 l 427 320 m 0 0 l 0 1068 l 106 1175 l 534 1175 l 641 1068 l 641 0 l 427 0 l 427 214 l 214 214 l 214 0 l 0 0 m 214 1228 l 427 1442 l 641 1442 l 427 1228 l 214 1228 z "},"Â":{"ha":747,"x_min":0,"x_max":641,"o":"m 427 320 l 427 1068 l 214 1068 l 214 320 l 427 320 m 0 0 l 0 1068 l 106 1175 l 534 1175 l 641 1068 l 641 0 l 427 0 l 427 214 l 214 214 l 214 0 l 0 0 m 0 1228 l 214 1442 l 427 1442 l 641 1228 l 427 1228 l 320 1335 l 214 1228 l 0 1228 z "},"Ã":{"ha":747,"x_min":0,"x_max":641,"o":"m 427 320 l 427 1068 l 214 1068 l 214 320 l 427 320 m 0 0 l 0 1068 l 106 1175 l 534 1175 l 641 1068 l 641 0 l 427 0 l 427 214 l 214 214 l 214 0 l 0 0 m 0 1228 l 0 1282 l 106 1389 l 427 1389 l 427 1442 l 641 1442 l 641 1389 l 534 1282 l 214 1282 l 214 1228 l 0 1228 z "},"Ä":{"ha":747,"x_min":0,"x_max":641,"o":"m 427 320 l 427 1068 l 214 1068 l 214 320 l 427 320 m 0 0 l 0 1068 l 106 1175 l 534 1175 l 641 1068 l 641 0 l 427 0 l 427 214 l 214 214 l 214 0 l 0 0 m 160 1228 l 53 1335 l 106 1389 l 160 1335 l 214 1389 l 267 1335 l 160 1228 m 480 1228 l 374 1335 l 427 1389 l 480 1335 l 534 1389 l 587 1335 l 480 1228 z "},"Å":{"ha":747,"x_min":0,"x_max":641,"o":"m 427 320 l 427 1068 l 214 1068 l 214 320 l 427 320 m 427 1175 l 427 1282 l 320 1282 l 320 1175 l 427 1175 m 0 0 l 0 1068 l 106 1175 l 106 1282 l 214 1389 l 427 1389 l 534 1282 l 534 1175 l 641 1068 l 641 0 l 427 0 l 427 214 l 214 214 l 214 0 l 0 0 z "},"Æ":{"ha":1175,"x_min":0,"x_max":1068,"o":"m 427 320 l 427 1068 l 214 1068 l 214 320 l 427 320 m 0 0 l 0 1068 l 106 1175 l 1068 1175 l 1068 1068 l 641 1068 l 641 641 l 961 641 l 961 534 l 641 534 l 641 106 l 1068 106 l 1068 0 l 427 0 l 427 214 l 214 214 l 214 0 l 0 0 z "},"Ç":{"ha":747,"x_min":0,"x_max":641,"o":"m 106 -214 l 106 -106 l 214 -106 l 214 0 l 106 0 l 0 106 l 0 1068 l 106 1175 l 534 1175 l 641 1068 l 641 854 l 427 854 l 427 1068 l 214 1068 l 214 106 l 427 106 l 427 320 l 641 320 l 641 106 l 534 0 l 427 0 l 427 -106 l 320 -214 l 106 -214 z "},"È":{"ha":747,"x_min":0,"x_max":641,"o":"m 0 0 l 0 1175 l 641 1175 l 641 1068 l 214 1068 l 214 641 l 534 641 l 534 534 l 214 534 l 214 106 l 641 106 l 641 0 l 0 0 m 214 1228 l 0 1442 l 214 1442 l 427 1228 l 214 1228 z "},"É":{"ha":747,"x_min":0,"x_max":641,"o":"m 0 0 l 0 1175 l 641 1175 l 641 1068 l 214 1068 l 214 641 l 534 641 l 534 534 l 214 534 l 214 106 l 641 106 l 641 0 l 0 0 m 214 1228 l 427 1442 l 641 1442 l 427 1228 l 214 1228 z "},"Ê":{"ha":747,"x_min":0,"x_max":641,"o":"m 0 0 l 0 1175 l 641 1175 l 641 1068 l 214 1068 l 214 641 l 534 641 l 534 534 l 214 534 l 214 106 l 641 106 l 641 0 l 0 0 m 0 1228 l 214 1442 l 427 1442 l 641 1228 l 427 1228 l 320 1335 l 214 1228 l 0 1228 z "},"Ë":{"ha":747,"x_min":0,"x_max":641,"o":"m 0 0 l 0 1175 l 641 1175 l 641 1068 l 214 1068 l 214 641 l 534 641 l 534 534 l 214 534 l 214 106 l 641 106 l 641 0 l 0 0 m 160 1228 l 53 1335 l 106 1389 l 160 1335 l 214 1389 l 267 1335 l 160 1228 m 480 1228 l 374 1335 l 427 1389 l 480 1335 l 534 1389 l 587 1335 l 480 1228 z "},"Ì":{"ha":320,"x_min":-214,"x_max":214,"o":"m 0 0 l 0 1175 l 214 1175 l 214 0 l 0 0 m 0 1228 l -214 1442 l 0 1442 l 214 1228 l 0 1228 z "},"Í":{"ha":320,"x_min":0,"x_max":427,"o":"m 0 0 l 0 1175 l 214 1175 l 214 0 l 0 0 m 0 1228 l 214 1442 l 427 1442 l 214 1228 l 0 1228 z "},"Î":{"ha":320,"x_min":-214,"x_max":427,"o":"m 0 0 l 0 1175 l 214 1175 l 214 0 l 0 0 m -214 1228 l 0 1442 l 214 1442 l 427 1228 l 214 1228 l 106 1335 l 0 1228 l -214 1228 z "},"Ï":{"ha":320,"x_min":-160,"x_max":374,"o":"m 0 0 l 0 1175 l 214 1175 l 214 0 l 0 0 m -53 1228 l -160 1335 l -106 1389 l -53 1335 l 0 1389 l 53 1335 l -53 1228 m 267 1228 l 160 1335 l 214 1389 l 267 1335 l 320 1389 l 374 1335 l 267 1228 z "},"Ð":{"ha":854,"x_min":0,"x_max":747,"o":"m 534 106 l 534 1068 l 320 1068 l 320 641 l 427 641 l 427 534 l 320 534 l 320 106 l 534 106 m 106 0 l 106 534 l 0 534 l 0 641 l 106 641 l 106 1175 l 641 1175 l 747 1068 l 747 106 l 641 0 l 106 0 z "},"Ñ":{"ha":747,"x_min":0,"x_max":641,"o":"m 0 0 l 0 1175 l 534 1175 l 641 1068 l 641 0 l 427 0 l 427 1068 l 214 1068 l 214 0 l 0 0 m 0 1228 l 0 1282 l 106 1389 l 427 1389 l 427 1442 l 641 1442 l 641 1389 l 534 1282 l 214 1282 l 214 1228 l 0 1228 z "},"Ò":{"ha":747,"x_min":0,"x_max":641,"o":"m 427 106 l 427 1068 l 214 1068 l 214 106 l 427 106 m 106 0 l 0 106 l 0 1068 l 106 1175 l 534 1175 l 641 1068 l 641 106 l 534 0 l 106 0 m 214 1228 l 0 1442 l 214 1442 l 427 1228 l 214 1228 z "},"Ó":{"ha":747,"x_min":0,"x_max":641,"o":"m 427 106 l 427 1068 l 214 1068 l 214 106 l 427 106 m 106 0 l 0 106 l 0 1068 l 106 1175 l 534 1175 l 641 1068 l 641 106 l 534 0 l 106 0 m 214 1228 l 427 1442 l 641 1442 l 427 1228 l 214 1228 z "},"Ô":{"ha":747,"x_min":0,"x_max":641,"o":"m 427 106 l 427 1068 l 214 1068 l 214 106 l 427 106 m 106 0 l 0 106 l 0 1068 l 106 1175 l 534 1175 l 641 1068 l 641 106 l 534 0 l 106 0 m 0 1228 l 214 1442 l 427 1442 l 641 1228 l 427 1228 l 320 1335 l 214 1228 l 0 1228 z "},"Õ":{"ha":747,"x_min":0,"x_max":641,"o":"m 427 106 l 427 1068 l 214 1068 l 214 106 l 427 106 m 106 0 l 0 106 l 0 1068 l 106 1175 l 534 1175 l 641 1068 l 641 106 l 534 0 l 106 0 m 0 1228 l 0 1282 l 106 1389 l 427 1389 l 427 1442 l 641 1442 l 641 1389 l 534 1282 l 214 1282 l 214 1228 l 0 1228 z "},"Ö":{"ha":747,"x_min":0,"x_max":641,"o":"m 427 106 l 427 1068 l 214 1068 l 214 106 l 427 106 m 106 0 l 0 106 l 0 1068 l 106 1175 l 534 1175 l 641 1068 l 641 106 l 534 0 l 106 0 m 160 1228 l 53 1335 l 106 1389 l 160 1335 l 214 1389 l 267 1335 l 160 1228 m 480 1228 l 374 1335 l 427 1389 l 480 1335 l 534 1389 l 587 1335 l 480 1228 z "},"Ø":{"ha":747,"x_min":0,"x_max":641,"o":"m 427 106 l 427 534 l 214 320 l 214 106 l 427 106 m 214 534 l 427 747 l 427 1068 l 214 1068 l 214 534 m 106 0 l 0 106 l 0 1068 l 106 1175 l 534 1175 l 641 1068 l 641 106 l 534 0 l 106 0 z "},"Ù":{"ha":747,"x_min":0,"x_max":641,"o":"m 106 0 l 0 106 l 0 1175 l 214 1175 l 214 106 l 427 106 l 427 1175 l 641 1175 l 641 106 l 534 0 l 106 0 m 214 1228 l 0 1442 l 214 1442 l 427 1228 l 214 1228 z "},"Ú":{"ha":747,"x_min":0,"x_max":641,"o":"m 106 0 l 0 106 l 0 1175 l 214 1175 l 214 106 l 427 106 l 427 1175 l 641 1175 l 641 106 l 534 0 l 106 0 m 214 1228 l 427 1442 l 641 1442 l 427 1228 l 214 1228 z "},"Û":{"ha":747,"x_min":0,"x_max":641,"o":"m 106 0 l 0 106 l 0 1175 l 214 1175 l 214 106 l 427 106 l 427 1175 l 641 1175 l 641 106 l 534 0 l 106 0 m 0 1228 l 214 1442 l 427 1442 l 641 1228 l 427 1228 l 320 1335 l 214 1228 l 0 1228 z "},"Ü":{"ha":747,"x_min":0,"x_max":641,"o":"m 106 0 l 0 106 l 0 1175 l 214 1175 l 214 106 l 427 106 l 427 1175 l 641 1175 l 641 106 l 534 0 l 106 0 m 160 1228 l 53 1335 l 106 1389 l 160 1335 l 214 1389 l 267 1335 l 160 1228 m 480 1228 l 374 1335 l 427 1389 l 480 1335 l 534 1389 l 587 1335 l 480 1228 z "},"Ý":{"ha":747,"x_min":0,"x_max":641,"o":"m 214 0 l 214 320 l 106 320 l 0 427 l 0 1175 l 214 1175 l 214 427 l 427 427 l 427 1175 l 641 1175 l 641 427 l 534 320 l 427 320 l 427 0 l 214 0 m 214 1228 l 427 1442 l 641 1442 l 427 1228 l 214 1228 z "},"Þ":{"ha":747,"x_min":0,"x_max":641,"o":"m 427 320 l 427 854 l 214 854 l 214 320 l 427 320 m 0 0 l 0 1175 l 214 1175 l 214 961 l 534 961 l 641 854 l 641 320 l 534 214 l 214 214 l 214 0 l 0 0 z "},"ß":{"ha":747,"x_min":0,"x_max":641,"o":"m 0 0 l 0 1068 l 106 1175 l 534 1175 l 641 1068 l 641 747 l 534 641 l 641 534 l 641 106 l 534 0 l 320 0 l 320 106 l 427 106 l 427 587 l 320 587 l 320 694 l 427 694 l 427 1068 l 214 1068 l 214 0 l 0 0 z "},"à":{"ha":747,"x_min":0,"x_max":641,"o":"m 427 106 l 427 534 l 214 534 l 214 106 l 427 106 m 106 0 l 0 106 l 0 534 l 106 641 l 427 641 l 427 854 l 214 854 l 214 747 l 0 747 l 0 854 l 106 961 l 534 961 l 641 854 l 641 106 l 534 0 l 106 0 m 214 1015 l 0 1228 l 214 1228 l 427 1015 l 214 1015 z "},"á":{"ha":747,"x_min":0,"x_max":641,"o":"m 427 106 l 427 534 l 214 534 l 214 106 l 427 106 m 106 0 l 0 106 l 0 534 l 106 641 l 427 641 l 427 854 l 214 854 l 214 747 l 0 747 l 0 854 l 106 961 l 534 961 l 641 854 l 641 106 l 534 0 l 106 0 m 214 1015 l 427 1228 l 641 1228 l 427 1015 l 214 1015 z "},"â":{"ha":747,"x_min":0,"x_max":641,"o":"m 427 106 l 427 534 l 214 534 l 214 106 l 427 106 m 106 0 l 0 106 l 0 534 l 106 641 l 427 641 l 427 854 l 214 854 l 214 747 l 0 747 l 0 854 l 106 961 l 534 961 l 641 854 l 641 106 l 534 0 l 106 0 m 0 1015 l 214 1228 l 427 1228 l 641 1015 l 427 1015 l 320 1122 l 214 1015 l 0 1015 z "},"ã":{"ha":747,"x_min":0,"x_max":641,"o":"m 427 106 l 427 534 l 214 534 l 214 106 l 427 106 m 106 0 l 0 106 l 0 534 l 106 641 l 427 641 l 427 854 l 214 854 l 214 747 l 0 747 l 0 854 l 106 961 l 534 961 l 641 854 l 641 106 l 534 0 l 106 0 m 0 1015 l 0 1068 l 106 1175 l 427 1175 l 427 1228 l 641 1228 l 641 1175 l 534 1068 l 214 1068 l 214 1015 l 0 1015 z "},"ä":{"ha":747,"x_min":0,"x_max":641,"o":"m 427 106 l 427 534 l 214 534 l 214 106 l 427 106 m 106 0 l 0 106 l 0 534 l 106 641 l 427 641 l 427 854 l 214 854 l 214 747 l 0 747 l 0 854 l 106 961 l 534 961 l 641 854 l 641 106 l 534 0 l 106 0 m 160 1015 l 53 1122 l 106 1175 l 160 1122 l 214 1175 l 267 1122 l 160 1015 m 480 1015 l 374 1122 l 427 1175 l 480 1122 l 534 1175 l 587 1122 l 480 1015 z "},"å":{"ha":747,"x_min":0,"x_max":641,"o":"m 427 106 l 427 534 l 214 534 l 214 106 l 427 106 m 427 961 l 427 1068 l 320 1068 l 320 961 l 427 961 m 106 0 l 0 106 l 0 534 l 106 641 l 427 641 l 427 854 l 214 854 l 214 747 l 0 747 l 0 854 l 106 961 l 106 1068 l 214 1175 l 427 1175 l 534 1068 l 534 961 l 641 854 l 641 106 l 534 0 l 106 0 z "},"æ":{"ha":1175,"x_min":0,"x_max":1068,"o":"m 427 106 l 427 534 l 214 534 l 214 106 l 427 106 m 854 534 l 854 854 l 641 854 l 641 534 l 854 534 m 106 0 l 0 106 l 0 534 l 106 641 l 427 641 l 427 854 l 214 854 l 214 747 l 0 747 l 0 854 l 106 961 l 961 961 l 1068 854 l 1068 427 l 641 427 l 641 106 l 854 106 l 854 320 l 1068 320 l 1068 106 l 961 0 l 106 0 z "},"ç":{"ha":747,"x_min":0,"x_max":641,"o":"m 106 0 l 0 106 l 0 854 l 106 961 l 534 961 l 641 854 l 641 641 l 427 641 l 427 854 l 214 854 l 214 106 l 427 106 l 427 320 l 641 320 l 641 106 l 534 0 l 106 0 z "},"è":{"ha":747,"x_min":0,"x_max":641,"o":"m 427 534 l 427 854 l 214 854 l 214 534 l 427 534 m 106 0 l 0 106 l 0 854 l 106 961 l 534 961 l 641 854 l 641 427 l 214 427 l 214 106 l 427 106 l 427 320 l 641 320 l 641 106 l 534 0 l 106 0 m 214 1015 l 0 1228 l 214 1228 l 427 1015 l 214 1015 z "},"é":{"ha":747,"x_min":0,"x_max":641,"o":"m 427 534 l 427 854 l 214 854 l 214 534 l 427 534 m 106 0 l 0 106 l 0 854 l 106 961 l 534 961 l 641 854 l 641 427 l 214 427 l 214 106 l 427 106 l 427 320 l 641 320 l 641 106 l 534 0 l 106 0 m 214 1015 l 427 1228 l 641 1228 l 427 1015 l 214 1015 z "},"ê":{"ha":747,"x_min":0,"x_max":641,"o":"m 427 534 l 427 854 l 214 854 l 214 534 l 427 534 m 106 0 l 0 106 l 0 854 l 106 961 l 534 961 l 641 854 l 641 427 l 214 427 l 214 106 l 427 106 l 427 320 l 641 320 l 641 106 l 534 0 l 106 0 m 0 1015 l 214 1228 l 427 1228 l 641 1015 l 427 1015 l 320 1122 l 214 1015 l 0 1015 z "},"ë":{"ha":747,"x_min":0,"x_max":641,"o":"m 427 534 l 427 854 l 214 854 l 214 534 l 427 534 m 106 0 l 0 106 l 0 854 l 106 961 l 534 961 l 641 854 l 641 427 l 214 427 l 214 106 l 427 106 l 427 320 l 641 320 l 641 106 l 534 0 l 106 0 m 160 1015 l 53 1122 l 106 1175 l 160 1122 l 214 1175 l 267 1122 l 160 1015 m 480 1015 l 374 1122 l 427 1175 l 480 1122 l 534 1175 l 587 1122 l 480 1015 z "},"ì":{"ha":427,"x_min":-214,"x_max":214,"o":"m 0 0 l 0 961 l 214 961 l 214 0 l 0 0 m 0 1015 l -214 1228 l 0 1228 l 214 1015 l 0 1015 z "},"í":{"ha":427,"x_min":0,"x_max":427,"o":"m 0 0 l 0 961 l 214 961 l 214 0 l 0 0 m 0 1015 l 214 1228 l 427 1228 l 214 1015 l 0 1015 z "},"î":{"ha":427,"x_min":-214,"x_max":427,"o":"m 0 0 l 0 961 l 214 961 l 214 0 l 0 0 m -214 1015 l 0 1228 l 214 1228 l 427 1015 l 214 1015 l 106 1122 l 0 1015 l -214 1015 z "},"ï":{"ha":427,"x_min":-160,"x_max":374,"o":"m 0 0 l 0 961 l 214 961 l 214 0 l 0 0 m -53 1015 l -160 1122 l -106 1175 l -53 1122 l 0 1175 l 53 1122 l -53 1015 m 267 1015 l 160 1122 l 214 1175 l 267 1122 l 320 1175 l 374 1122 l 267 1015 z "},"ð":{"ha":747,"x_min":0,"x_max":747,"o":"m 427 106 l 427 854 l 214 854 l 214 106 l 427 106 m 106 0 l 0 106 l 0 854 l 106 961 l 427 961 l 427 1015 l 320 1015 l 320 1122 l 427 1122 l 427 1175 l 641 1175 l 641 1122 l 747 1122 l 747 1015 l 641 1015 l 641 106 l 534 0 l 106 0 z "},"ñ":{"ha":747,"x_min":0,"x_max":641,"o":"m 0 0 l 0 961 l 534 961 l 641 854 l 641 0 l 427 0 l 427 854 l 214 854 l 214 0 l 0 0 m 0 1015 l 0 1068 l 106 1175 l 427 1175 l 427 1228 l 641 1228 l 641 1175 l 534 1068 l 214 1068 l 214 1015 l 0 1015 z "},"ò":{"ha":747,"x_min":0,"x_max":641,"o":"m 427 106 l 427 854 l 214 854 l 214 106 l 427 106 m 106 0 l 0 106 l 0 854 l 106 961 l 534 961 l 641 854 l 641 106 l 534 0 l 106 0 m 214 1015 l 0 1228 l 214 1228 l 427 1015 l 214 1015 z "},"ó":{"ha":747,"x_min":0,"x_max":641,"o":"m 427 106 l 427 854 l 214 854 l 214 106 l 427 106 m 106 0 l 0 106 l 0 854 l 106 961 l 534 961 l 641 854 l 641 106 l 534 0 l 106 0 m 214 1015 l 427 1228 l 641 1228 l 427 1015 l 214 1015 z "},"ô":{"ha":747,"x_min":0,"x_max":641,"o":"m 427 106 l 427 854 l 214 854 l 214 106 l 427 106 m 106 0 l 0 106 l 0 854 l 106 961 l 534 961 l 641 854 l 641 106 l 534 0 l 106 0 m 0 1015 l 214 1228 l 427 1228 l 641 1015 l 427 1015 l 320 1122 l 214 1015 l 0 1015 z "},"õ":{"ha":747,"x_min":0,"x_max":641,"o":"m 427 106 l 427 854 l 214 854 l 214 106 l 427 106 m 106 0 l 0 106 l 0 854 l 106 961 l 534 961 l 641 854 l 641 106 l 534 0 l 106 0 m 0 1015 l 0 1068 l 106 1175 l 427 1175 l 427 1228 l 641 1228 l 641 1175 l 534 1068 l 214 1068 l 214 1015 l 0 1015 z "},"ö":{"ha":747,"x_min":0,"x_max":641,"o":"m 427 106 l 427 854 l 214 854 l 214 106 l 427 106 m 106 0 l 0 106 l 0 854 l 106 961 l 534 961 l 641 854 l 641 106 l 534 0 l 106 0 m 160 1015 l 53 1122 l 106 1175 l 160 1122 l 214 1175 l 267 1122 l 160 1015 m 480 1015 l 374 1122 l 427 1175 l 480 1122 l 534 1175 l 587 1122 l 480 1015 z "},"ø":{"ha":747,"x_min":0,"x_max":641,"o":"m 427 106 l 427 427 l 214 214 l 214 106 l 427 106 m 214 427 l 427 641 l 427 854 l 214 854 l 214 427 m 106 0 l 0 106 l 0 854 l 106 961 l 534 961 l 641 854 l 641 106 l 534 0 l 106 0 z "},"ù":{"ha":747,"x_min":0,"x_max":641,"o":"m 106 0 l 0 106 l 0 961 l 214 961 l 214 106 l 427 106 l 427 961 l 641 961 l 641 106 l 534 0 l 106 0 m 214 1015 l 0 1228 l 214 1228 l 427 1015 l 214 1015 z "},"ú":{"ha":747,"x_min":0,"x_max":641,"o":"m 106 0 l 0 106 l 0 961 l 214 961 l 214 106 l 427 106 l 427 961 l 641 961 l 641 106 l 534 0 l 106 0 m 214 1015 l 427 1228 l 641 1228 l 427 1015 l 214 1015 z "},"û":{"ha":747,"x_min":0,"x_max":641,"o":"m 106 0 l 0 106 l 0 961 l 214 961 l 214 106 l 427 106 l 427 961 l 641 961 l 641 106 l 534 0 l 106 0 m 0 1015 l 214 1228 l 427 1228 l 641 1015 l 427 1015 l 320 1122 l 214 1015 l 0 1015 z "},"ü":{"ha":747,"x_min":0,"x_max":641,"o":"m 106 0 l 0 106 l 0 961 l 214 961 l 214 106 l 427 106 l 427 961 l 641 961 l 641 106 l 534 0 l 106 0 m 160 1015 l 53 1122 l 106 1175 l 160 1122 l 214 1175 l 267 1122 l 160 1015 m 480 1015 l 374 1122 l 427 1175 l 480 1122 l 534 1175 l 587 1122 l 480 1015 z "},"ý":{"ha":747,"x_min":0,"x_max":641,"o":"m 106 -214 l 106 -106 l 427 -106 l 427 0 l 106 0 l 0 106 l 0 961 l 214 961 l 214 106 l 427 106 l 427 961 l 641 961 l 641 -106 l 534 -214 l 106 -214 m 214 1015 l 427 1228 l 641 1228 l 427 1015 l 214 1015 z "},"þ":{"ha":747,"x_min":0,"x_max":641,"o":"m 427 214 l 427 747 l 214 747 l 214 214 l 427 214 m 0 -106 l 0 1068 l 214 1068 l 214 854 l 534 854 l 641 747 l 641 214 l 534 106 l 214 106 l 214 -106 l 0 -106 z "},"ÿ":{"ha":747,"x_min":0,"x_max":641,"o":"m 106 -214 l 106 -106 l 427 -106 l 427 0 l 106 0 l 0 106 l 0 961 l 214 961 l 214 106 l 427 106 l 427 961 l 641 961 l 641 -106 l 534 -214 l 106 -214 m 160 1015 l 53 1122 l 106 1175 l 160 1122 l 214 1175 l 267 1122 l 160 1015 m 480 1015 l 374 1122 l 427 1175 l 480 1122 l 534 1175 l 587 1122 l 480 1015 z "},"Œ":{"ha":1175,"x_min":0,"x_max":1068,"o":"m 427 106 l 427 1068 l 214 1068 l 214 106 l 427 106 m 106 0 l 0 106 l 0 1068 l 106 1175 l 1068 1175 l 1068 1068 l 641 1068 l 641 641 l 961 641 l 961 534 l 641 534 l 641 106 l 1068 106 l 1068 0 l 106 0 z "},"œ":{"ha":1175,"x_min":0,"x_max":1068,"o":"m 427 106 l 427 854 l 214 854 l 214 106 l 427 106 m 854 534 l 854 854 l 641 854 l 641 534 l 854 534 m 106 0 l 0 106 l 0 854 l 106 961 l 961 961 l 1068 854 l 1068 427 l 641 427 l 641 106 l 854 106 l 854 320 l 1068 320 l 1068 106 l 961 0 l 106 0 z "},"Ů":{"ha":747,"x_min":0,"x_max":0,"o":""},"ů":{"ha":747,"x_min":0,"x_max":0,"o":""},"Ÿ":{"ha":747,"x_min":0,"x_max":641,"o":"m 214 0 l 214 320 l 106 320 l 0 427 l 0 1175 l 214 1175 l 214 427 l 427 427 l 427 1175 l 641 1175 l 641 427 l 534 320 l 427 320 l 427 0 l 214 0 m 160 1228 l 53 1335 l 106 1389 l 160 1335 l 214 1389 l 267 1335 l 160 1228 m 480 1228 l 374 1335 l 427 1389 l 480 1335 l 534 1389 l 587 1335 l 480 1228 z "},"‘":{"ha":534,"x_min":0,"x_max":427,"o":"m 214 747 l 0 961 l 0 1068 l 106 1175 l 214 1068 l 320 1175 l 427 1068 l 427 961 l 214 747 z "},"’":{"ha":534,"x_min":0,"x_max":427,"o":"m 214 641 l 0 854 l 0 961 l 106 1068 l 214 961 l 320 1068 l 427 961 l 427 854 l 214 641 z "},"“":{"ha":534,"x_min":0,"x_max":427,"o":"m 320 854 l 214 961 l 267 1015 l 320 961 l 374 1015 l 427 961 l 320 854 m 106 961 l 0 1068 l 53 1122 l 106 1068 l 160 1122 l 214 1068 l 106 961 z "},"”":{"ha":534,"x_min":0,"x_max":427,"o":"m 106 854 l 0 961 l 53 1015 l 106 961 l 160 1015 l 214 961 l 106 854 m 320 961 l 214 1068 l 267 1122 l 320 1068 l 374 1122 l 427 1068 l 320 961 z "},"€":{"ha":854,"x_min":0,"x_max":747,"o":"m 214 0 l 106 106 l 106 427 l 0 427 l 0 534 l 106 534 l 106 641 l 0 641 l 0 747 l 106 747 l 106 1068 l 214 1175 l 641 1175 l 747 1068 l 747 961 l 534 961 l 534 1068 l 320 1068 l 320 747 l 641 747 l 641 641 l 320 641 l 320 534 l 641 534 l 641 427 l 320 427 l 320 106 l 534 106 l 534 214 l 747 214 l 747 106 l 641 0 l 214 0 z "},"™":{"ha":1282,"x_min":0,"x_max":1175,"o":"m 106 747 l 106 1068 l 0 1068 l 0 1175 l 1068 1175 l 1175 1068 l 1175 747 l 961 747 l 961 1068 l 908 1068 l 908 747 l 694 747 l 694 1068 l 641 1068 l 641 747 l 427 747 l 427 1068 l 320 1068 l 320 747 l 106 747 z "}}}
